<svg width="35" height="42" viewBox="0 0 35 42" fill="none" xmlns="http://www.w3.org/2000/svg">
<path fill-rule="evenodd" clip-rule="evenodd" d="M30.6706 19.7971L30.6114 19.7523C31.9292 17.8619 32.5882 15.5627 32.5882 12.8545C32.5882 8.83734 31.2045 5.68983 28.4369 3.41193C25.6692 1.13403 21.8606 -0.00327756 17.0107 7.09433e-06H4.9322V1.68256H16.7933C20.9149 1.68256 24.5918 2.59652 26.9246 4.49094C29.0941 6.25479 29.8898 7.77231 30.5248 10.0437C29.88 7.97185 28.3603 6.63911 27.4163 5.85572C25.7632 4.47125 23.7097 3.50309 18.1153 3.50309H8.79941V5.14377H17.9077C22.6817 5.14377 24.4338 5.73006 26.0399 6.915C28.0959 8.43251 29.371 10.2456 29.371 12.8619C29.371 15.2195 28.5407 16.4808 27.1469 17.7888C26.9839 17.7247 26.8208 17.6633 26.6528 17.6042L26.8109 17.5203C28.3207 16.6902 29.366 15.0963 29.366 12.8545C29.366 10.4058 27.9575 8.87597 26.5786 8.01374C25.2864 7.20572 24.0557 6.66375 18.8047 6.66375H12.1082V7.75752H18.6168C23.3564 7.75752 25.1528 8.59758 25.6965 8.93015C26.7615 9.58052 28.1676 10.7088 28.1676 12.8717C28.1676 14.2513 27.3496 15.9117 26.1412 16.5891C25.7489 16.8057 25.3347 16.9808 24.9058 17.1114C23.1069 16.7051 21.2668 16.5082 19.4225 16.525H11.3446V18.2076H19.2001C23.3217 18.2076 27.053 19.0526 29.3314 21.0161C31.0512 22.4739 32.3025 24.4041 32.9292 26.5662C32.2868 24.4944 30.9672 23.2381 29.8231 22.3783C28.0933 21.0751 26.1165 20.0232 20.5221 20.0258H7.85795V21.6663H20.3145C25.0885 21.6663 26.8382 22.2527 28.4467 23.4377C30.5027 24.9552 31.7579 26.7683 31.7579 29.3846C31.7579 31.9071 30.4828 33.7473 28.417 35.2649C26.3043 36.8169 23.0747 36.8637 21.7602 36.8637H14.8411V38.5019H20.0131C24.3424 38.5019 27.2335 38.1324 29.7367 36.2847C32.0842 34.5455 33.332 32.2963 33.332 29.3869C33.3549 30.946 33.0187 32.4895 32.3496 33.8988C31.6805 35.308 30.6962 36.5457 29.4723 37.5165C27.1025 39.4675 22.8746 40.3274 18.6441 40.3274H5.02611V42H18.7404C23.8473 42 27.833 40.8948 30.6978 38.6841C33.5626 36.4736 34.9967 33.3679 35 29.3673C34.9901 25.3452 33.6006 22.1969 30.8314 19.9223C30.7787 19.8789 30.7248 19.8381 30.6706 19.7971ZM30.9145 13.0689C30.9095 15.1009 30.2963 17.0871 29.151 18.7717C29.0053 18.688 28.857 18.6067 28.7087 18.5254C30.1164 17.0515 30.9038 15.0988 30.9145 13.0689ZM22.4246 27.0096H10.5537V27.9255H22.4246V27.0096ZM15.449 30.3428H22.3531V31.1282H15.449V30.3428ZM8.52776 27.0096H5.01146V27.9255H8.52776V27.0096ZM2.81927 30.2787H13.4991V31.1945H2.81927V30.2787ZM12.869 37.2701H2.81927V38.368H12.869V37.2701ZM5.45108 6.91996H9.61232V7.67579H5.45108V6.91996ZM12.0833 12.931H2.55241V13.8098H12.0833V12.931ZM6.59496 10.2456H22.3752V11.1246H6.59496V10.2456ZM22.0763 12.931H14.4852V13.8098H22.0763V12.931ZM31.7431 29.3699C31.7431 31.4861 30.7176 33.0701 29.2054 33.8706C27.698 34.6664 25.5631 35.1246 21.9529 35.1246H0V34.0826H21.854C25.1849 34.0826 27.4237 33.548 28.5257 32.9517C29.7367 32.294 30.5545 30.6952 30.5545 29.3649C30.5545 27.2832 29.1486 26.187 28.0836 25.5588C27.5399 25.2385 25.7409 24.4281 21.0039 24.4281H12.6666V23.3861H21.1992C26.5465 23.3861 27.6807 23.9107 28.9756 24.6892C30.3544 25.5243 31.7431 27.0074 31.7431 29.3699ZM0.313905 40.3397H2.82695V41.9325H0.313905V40.3397Z" fill="white"/>
</svg>
