<svg width="55" height="50" viewBox="0 0 55 50" fill="none" xmlns="http://www.w3.org/2000/svg">
<path d="M54.2607 0.625L41.0078 24.9992L35.6641 15.1661L43.7099 0.625H54.2607Z" fill="#0094F9"/>
<path d="M41.007 25.001L35.6961 34.7738L30.2539 24.9407L35.6633 15.168L41.007 25.001Z" fill="#0094F9"/>
<path d="M18.5584 15.2265L13.2473 24.9992L0 0.625H10.4743L18.5584 15.2265Z" fill="#00D4F7"/>
<path d="M54.2607 0.625L41.0078 24.9992L35.6641 15.1661L43.7099 0.625H54.2607Z" fill="#00D4F7"/>
<path d="M24.0031 25.0651L18.5937 34.8323L13.25 24.9992L18.5609 15.2266L24.0031 25.0651Z" fill="#0094F9"/>
<path d="M18.5638 15.2283L13.2473 25.001L0 49.3752H10.5508L18.591 34.8396L24.0006 25.0669L18.5638 15.2283ZM41.0055 25.001L35.6616 15.168L30.2522 24.9407L35.689 34.7738L43.7731 49.3752H54.2528L41.0055 25.001Z" fill="#004ED8"/>
<path d="M18.564 15.2288L13.2531 25.0015L8.28125 15.8543L13.5812 6.21875L18.564 15.2288Z" fill="#0091E8"/>
<path d="M35.6641 15.167L41.0078 25L45.9742 15.8639L40.6413 6.16797L35.6641 15.167Z" fill="#0091E8"/>
</svg>
