<svg width="59" height="55" viewBox="0 0 59 55" fill="none" xmlns="http://www.w3.org/2000/svg">
<g filter="url(#filter0_d_166_4166)">
<path d="M55.0006 17.9123C55.0006 20.0374 54.697 22.1626 54.3934 24.2878C51.661 38.8605 43.3121 46.1468 29.3466 46.1468H20.5422V45.995L22.6674 35.9763H28.7394C36.3293 35.9763 40.8833 31.7259 42.4013 23.0734C42.5531 22.4662 42.5531 22.0108 42.7049 21.4036L54.8488 14.4209C54.8488 15.4835 55.0006 16.6979 55.0006 17.9123ZM50.5984 5.31296L39.8207 11.5367C37.9991 10.4741 35.8739 9.86692 33.5969 10.0187H15.9883V9.71512L18.1135 0H36.3293C38.6063 0 41.0351 0.303598 43.1603 0.910793C45.7408 1.66979 48.1696 2.88418 49.9912 4.70576C50.2948 4.85756 50.4466 5.00936 50.5984 5.31296Z" fill="white"/>
<path d="M33.2972 18.6699L31.6274 28.6886H24.1892L20.5461 45.8419V45.9937H4L10.2237 37.6448L14.3223 18.6699H33.2972Z" fill="#00D0C4"/>
</g>
<defs>
<filter id="filter0_d_166_4166" x="0" y="0" width="59" height="54.1465" filterUnits="userSpaceOnUse" color-interpolation-filters="sRGB">
<feFlood flood-opacity="0" result="BackgroundImageFix"/>
<feColorMatrix in="SourceAlpha" type="matrix" values="0 0 0 0 0 0 0 0 0 0 0 0 0 0 0 0 0 0 127 0" result="hardAlpha"/>
<feOffset dy="4"/>
<feGaussianBlur stdDeviation="2"/>
<feComposite in2="hardAlpha" operator="out"/>
<feColorMatrix type="matrix" values="0 0 0 0 0 0 0 0 0 0 0 0 0 0 0 0 0 0 0.25 0"/>
<feBlend mode="normal" in2="BackgroundImageFix" result="effect1_dropShadow_166_4166"/>
<feBlend mode="normal" in="SourceGraphic" in2="effect1_dropShadow_166_4166" result="shape"/>
</filter>
</defs>
</svg>
