<svg width="46" height="46" viewBox="0 0 46 46" fill="none" xmlns="http://www.w3.org/2000/svg">
<path d="M46 23C46 10.2975 35.7025 0 23 0C10.2975 0 0 10.2975 0 23C0 35.7025 10.2975 46 23 46C35.7025 46 46 35.7025 46 23Z" fill="#5661FF"/>
<path d="M36.4193 32.431L31.3723 18.3965H23.882L20.5092 27.7763H16.6014L23.0078 9.96484H20.5987C19.7383 9.96546 18.899 10.2315 18.1953 10.7267C17.4917 11.2219 16.9579 11.9221 16.6668 12.7318L9.58594 32.431H21.2337C22.0947 32.431 22.9348 32.1653 23.6391 31.67C24.3435 31.1748 24.8777 30.4742 25.169 29.6639L27.6262 22.8292L31.0781 32.431H36.4193Z" fill="white"/>
</svg>
