<svg width="77" height="77" viewBox="0 0 77 77" fill="none" xmlns="http://www.w3.org/2000/svg">
<path d="M38.0301 6.70082C39.169 4.75358 40.7712 3.12171 42.6927 1.95204C44.6142 0.782358 46.7945 0.111562 49.0377 0C55.5293 0 60.017 4.34418 60.017 9.36979C60.017 17.8878 55.8398 20.1876 40.2598 30.9487C39.5766 31.4538 38.7509 31.7262 37.903 31.7262C37.0552 31.7262 36.2295 31.4538 35.5463 30.9487C19.0913 19.7333 15.7891 17.4051 15.7891 9.36979C16.0149 4.34418 20.5026 0 27.0225 0C29.2656 0.111562 31.446 0.782358 33.3674 1.95204C35.2889 3.12171 36.8911 4.75358 38.0301 6.70082Z" fill="#E22027"/>
<path d="M76.0138 22.0919V48.2705C75.9964 49.3969 75.7073 50.5022 75.1714 51.4913C74.6356 52.4805 73.8689 53.3239 72.9373 53.9492L42.3418 74.6763C41.0439 75.5527 39.5161 76.0208 37.9529 76.0208C36.3897 76.0208 34.8619 75.5527 33.564 74.6763L3.0814 54.1763C2.11803 53.5298 1.33149 52.6502 0.793961 51.6184C0.256428 50.5865 -0.0148851 49.4353 0.00491751 48.2705V22.0919C0.00110713 21.3696 0.192988 20.6599 0.559944 20.0391C0.926901 19.4183 1.45506 18.9098 2.08769 18.5683C2.72032 18.2267 3.4335 18.065 4.15061 18.1005C4.86772 18.136 5.56167 18.3674 6.15788 18.7698L34.3825 37.7366C35.4557 38.4592 36.718 38.845 38.0094 38.845C39.3008 38.845 40.5631 38.4592 41.6362 37.7366L69.8608 18.7982C70.4551 18.3972 71.1464 18.166 71.8611 18.1293C72.5757 18.0926 73.2868 18.2519 73.9185 18.59C74.5503 18.9282 75.0788 19.4325 75.4479 20.0493C75.8169 20.666 76.0125 21.372 76.0138 22.0919Z" fill="#E22027"/>
<g style="mix-blend-mode:multiply" opacity="0.24">
<path d="M76.0138 22.0899V48.2685C75.9964 49.3949 75.7073 50.5002 75.1714 51.4894C74.6356 52.4786 73.8689 53.322 72.9373 53.9472L42.3418 74.6743C41.0439 75.5508 39.5161 76.0188 37.9529 76.0188C36.3897 76.0188 34.8619 75.5508 33.564 74.6743L3.0814 54.1743C2.11803 53.5278 1.33149 52.6483 0.793961 51.6164C0.256428 50.5845 -0.0148851 49.4334 0.00491751 48.2685V22.0899C0.00110713 21.3676 0.192988 20.658 0.559944 20.0372C0.926901 19.4164 1.45506 18.9079 2.08769 18.5663C2.72032 18.2248 3.4335 18.063 4.15061 18.0986C4.86772 18.1341 5.56167 18.3655 6.15788 18.7679L34.3825 37.7346C35.4557 38.4573 36.718 38.8431 38.0094 38.8431C39.3008 38.8431 40.5631 38.4573 41.6362 37.7346L69.8608 18.7963C70.4551 18.3952 71.1464 18.164 71.8611 18.1273C72.5757 18.0907 73.2868 18.2499 73.9185 18.5881C74.5503 18.9262 75.0788 19.4306 75.4479 20.0473C75.8169 20.6641 76.0125 21.3701 76.0138 22.0899Z" fill="url(#paint0_linear_166_4289)"/>
</g>
<path d="M76.0081 29.6992L65.6497 36.9111C64.8652 37.4308 64.222 38.1393 63.7784 38.9722C63.3349 39.8051 63.1049 40.7363 63.1095 41.6812V42.5898C63.1052 43.1015 63.2385 43.6048 63.4952 44.0466C63.752 44.4883 64.1226 44.8521 64.5679 45.0993C65.0133 45.3466 65.5168 45.4682 66.0252 45.4513C66.5336 45.4344 67.0279 45.2796 67.4561 45.0032L75.9234 39.1258L76.0081 29.6992Z" fill="#03000A"/>
<path d="M69.867 18.7979L42.6585 40.8027C41.3458 41.8748 39.7064 42.4599 38.0155 42.4599C36.3247 42.4599 34.6853 41.8748 33.3726 40.8027L6.16406 18.7695L34.3887 37.7363C35.4618 38.4589 36.7241 38.8447 38.0155 38.8447C39.3069 38.8447 40.5693 38.4589 41.6424 37.7363L69.867 18.7979Z" fill="#03000A"/>
<defs>
<linearGradient id="paint0_linear_166_4289" x1="38.0235" y1="76.0088" x2="38.0235" y2="18.1148" gradientUnits="userSpaceOnUse">
<stop/>
<stop offset="1" stop-color="white" stop-opacity="0"/>
</linearGradient>
</defs>
</svg>
