<svg width="65" height="42" viewBox="0 0 65 42" fill="none" xmlns="http://www.w3.org/2000/svg">
<path d="M23.4589 27.3069H15.133L0.5 41.9997H19.063L19.9111 40.4109L22.2165 36.1106H14.691L23.4708 27.3069H23.4589ZM46.1788 0L45.3307 1.58872L43.0252 5.88903H50.5508L41.771 14.6927H50.0969L64.7418 0H46.1788Z" fill="#FFCE00"/>
<path d="M46.1788 23.3769L42.0218 27.5459L50.5508 36.0987H44.8051L39.143 30.4247L36.7659 28.0476L34.0663 25.336L31.068 30.6755L32.609 32.2284L34.9861 34.6055L42.3563 41.9997H64.7299L46.1669 23.3769H46.1788ZM25.5851 16.819L23.208 14.4419L14.6791 5.88903H20.4248L26.0749 11.563L30.2318 7.39414L22.8735 0H0.5L19.051 18.6108L21.4282 20.9998L32.6209 32.2284L34.5919 25.8616L25.5851 16.8309V16.819Z" fill="#FFCE00"/>
</svg>
