<svg width="86" height="86" viewBox="0 0 86 86" fill="none" xmlns="http://www.w3.org/2000/svg">
<path d="M43 86C66.7482 86 86 66.7482 86 43C86 19.2518 66.7482 0 43 0C19.2518 0 0 19.2518 0 43C0 66.7482 19.2518 86 43 86Z" fill="#007896"/>
<path d="M47.4782 53.827C46.3193 55.0055 44.7356 55.6693 43.0827 55.6693C41.4298 55.6693 39.8461 55.0055 38.6872 53.827L33.0841 48.1631C32.363 47.4295 31.3774 47.0163 30.3487 47.0163C29.32 47.0163 28.3345 47.4295 27.6134 48.1631C25.1862 50.6327 25.1862 54.5919 27.6134 57.0615L38.7051 68.2569C39.864 69.4355 41.4477 70.0992 43.1006 70.0992C44.7535 70.0992 46.3372 69.4355 47.4961 68.2569L58.5592 57.0472C60.9864 54.5776 60.9864 50.6184 58.5592 48.1488C57.8381 47.4152 56.8525 47.002 55.8238 47.002C54.7952 47.002 53.8096 47.4152 53.0885 48.1488L47.4782 53.827Z" fill="white"/>
<path d="M26.4564 34.109C27.5617 32.9606 29.0819 32.3043 30.6757 32.2874C32.2696 32.2706 33.8033 32.8947 34.9326 34.0196L40.2781 39.4187C40.9801 40.1182 41.9336 40.5065 42.9245 40.4964C43.9154 40.4863 44.8608 40.0787 45.5484 39.3651C47.9164 37.005 47.9515 33.1811 45.6271 30.7779L35.065 20.0977C33.9357 18.9729 32.4019 18.3487 30.8081 18.3656C29.2143 18.3824 27.694 19.0387 26.5888 20.1872L15.8227 31.0964C13.4547 33.4565 13.4196 37.2804 15.744 39.6835C16.446 40.383 17.3994 40.7712 18.3904 40.7612C19.3813 40.7511 20.3267 40.3435 21.0143 39.6298L26.4564 34.109Z" fill="white"/>
<path d="M51.0925 33.8668C52.1977 32.7184 53.718 32.0621 55.3118 32.0452C56.9056 32.0284 58.4394 32.6525 59.5686 33.7774L64.9141 39.1837C65.6161 39.8832 66.5696 40.2714 67.5606 40.2614C68.5515 40.2513 69.4969 39.8437 70.1845 39.13C72.5525 36.7699 72.5875 32.946 70.2632 30.5429L59.6939 19.8555C58.5646 18.7307 57.0308 18.1066 55.437 18.1234C53.8432 18.1402 52.3229 18.7965 51.2177 19.945L40.4516 30.8542C38.0836 33.2143 38.0485 37.0382 40.3729 39.4413C41.0749 40.1408 42.0283 40.5291 43.0193 40.519C44.0102 40.5089 44.9556 40.1013 45.6432 39.3876L51.0925 33.8668Z" fill="white"/>
</svg>
