<svg width="147" height="112" viewBox="0 0 147 112" fill="none" xmlns="http://www.w3.org/2000/svg">
<path d="M91.2187 53.0313C91.2187 60.8404 71.0239 67.1492 46.1093 67.1492C21.1947 67.1492 1 60.8019 1 53.0313C1 45.2223 21.1947 38.875 46.1093 38.875C71.0239 38.875 91.2187 45.2223 91.2187 53.0313Z" fill="#03000A" stroke="#F9FD09" stroke-width="0.5" stroke-miterlimit="10"/>
<path d="M91.2187 53.0332V65.5739C91.2187 73.3829 71.0239 79.6917 46.1093 79.6917C21.1947 79.6917 1 73.3445 1 65.5354V53.0332C1 60.8038 21.1947 67.1511 46.1093 67.1511C71.0239 67.1511 91.2187 60.8038 91.2187 53.0332Z" fill="#03000A" stroke="#F9FD09" stroke-width="0.5" stroke-miterlimit="10"/>
<path d="M91.2187 34.794C91.2187 42.6031 71.0239 48.9119 46.1093 48.9119C21.1947 48.9119 1 42.5646 1 34.794C1 26.985 21.1947 20.6377 46.1093 20.6377C71.0239 20.6377 91.2187 26.985 91.2187 34.794Z" fill="#03000A" stroke="#F9FD09" stroke-width="0.5" stroke-miterlimit="10"/>
<path d="M91.2187 34.7949V47.3356C91.2187 55.1447 71.0239 61.4535 46.1093 61.4535C21.1947 61.4535 1 55.1062 1 47.2971V34.7949C1 42.5655 21.1947 48.9128 46.1093 48.9128C71.0239 48.9128 91.2187 42.5655 91.2187 34.7949Z" fill="#03000A" stroke="#F9FD09" stroke-width="0.5" stroke-miterlimit="10"/>
<path d="M91.2187 15.1563C91.2187 22.9654 71.0239 29.2742 46.1093 29.2742C21.1947 29.2742 1 22.9269 1 15.1563C1 7.34727 21.1947 1 46.1093 1C71.0239 1 91.2187 7.34727 91.2187 15.1563Z" fill="#03000A" stroke="#F9FD09" stroke-width="0.5" stroke-miterlimit="10"/>
<path d="M91.2187 15.1572V27.6979C91.2187 35.507 71.0239 41.8158 46.1093 41.8158C21.1947 41.8158 1 35.4685 1 27.6594V15.1572C1 22.9278 21.1947 29.2751 46.1093 29.2751C71.0239 29.2751 91.2187 22.9278 91.2187 15.1572Z" fill="#03000A" stroke="#F9FD09" stroke-width="0.5" stroke-miterlimit="10"/>
<circle cx="99.1943" cy="64.123" r="47.4423" fill="#03000A" stroke="#F9FD09" stroke-width="0.5"/>
<g clip-path="url(#clip0_164_2758)">
<path d="M86.1773 85.5502V79.6598H92.1714V85.5502H86.1773Z" fill="#F4DF04" stroke="#F4DF04" stroke-width="0.3"/>
<path d="M104.107 80.4471L103.945 80.4341V80.5966V85.55H99.0271V74.0126H106.199L106.199 74.0127L106.215 74.0132C106.227 74.0136 106.245 74.0136 106.267 74.0128C106.31 74.0112 106.37 74.006 106.442 73.9922C106.585 73.9646 106.774 73.902 106.962 73.762C107.343 73.4765 107.677 72.9009 107.647 71.775L107.647 71.774C107.611 70.6813 107.603 69.8451 107.605 69.2826C107.606 69.0013 107.609 68.7884 107.612 68.6461C107.614 68.5749 107.615 68.5214 107.616 68.4857L107.617 68.4457L107.618 68.4358L107.618 68.4334L107.618 68.4329L107.618 68.4328L107.618 68.4254L107.618 68.418L107.468 68.4271C107.618 68.418 107.618 68.4179 107.618 68.4178L107.618 68.4176L107.617 68.417L107.617 68.4157L107.617 68.4116L107.616 68.3985C107.615 68.3918 107.614 68.3836 107.613 68.3739C107.612 68.3677 107.611 68.361 107.61 68.3536C107.605 68.3161 107.595 68.2638 107.578 68.2014C107.545 68.0771 107.484 67.9104 107.371 67.7416C107.14 67.3968 106.706 67.0632 105.917 67.0391L105.915 67.0391C105.165 67.0239 103.389 67.0239 101.804 67.0277C101.011 67.0296 100.264 67.0324 99.7161 67.0348L99.0616 67.0378L98.9689 67.0383V60.7128L106.417 60.8164L106.42 60.8165C106.424 60.8166 106.43 60.8167 106.436 60.8166C106.448 60.8165 106.465 60.8159 106.486 60.814C106.527 60.8102 106.583 60.8013 106.649 60.7814C106.782 60.7414 106.951 60.6572 107.114 60.4841C107.439 60.1382 107.713 59.4636 107.661 58.1541L107.661 58.1541C107.61 56.871 107.585 56.1129 107.572 55.6757C107.566 55.4571 107.563 55.3189 107.561 55.2356C107.56 55.1939 107.56 55.166 107.56 55.1486L107.56 55.1365L107.56 55.1324C107.562 55.121 107.564 55.1051 107.566 55.0854C107.569 55.046 107.572 54.9909 107.57 54.925C107.564 54.7939 107.538 54.6156 107.45 54.4335C107.268 54.0553 106.847 53.7085 105.961 53.6768L105.961 53.6767H105.956H105.956C104.894 53.6767 97.7573 53.6767 92.321 53.6918L92.1714 53.6922V53.8418V76.6418H86.1773V47.439H96.5513H96.7013V47.289V42.3658H102.158V47.289V47.439H102.308H108.463L108.469 47.4396C108.477 47.4406 108.491 47.4422 108.509 47.4445C108.544 47.4493 108.598 47.457 108.666 47.4691C108.802 47.4931 108.999 47.534 109.236 47.6015C109.711 47.7364 110.347 47.9768 110.991 48.3978C112.272 49.2359 113.6 50.7977 113.743 53.7133C113.763 54.1285 113.783 54.5216 113.802 54.8947C113.918 57.1869 113.996 58.7218 113.905 59.9646C113.799 61.3973 113.469 62.4367 112.701 63.7934L112.708 63.7972C112.701 63.8043 112.695 63.8118 112.689 63.8198C112.681 63.8688 112.696 63.9325 112.704 63.9466C112.708 63.9526 112.715 63.9616 112.718 63.9648L112.724 63.9713L112.811 64.0623C112.836 64.0926 112.867 64.1325 112.902 64.1834C113.013 64.344 113.166 64.6148 113.317 65.0405C113.62 65.8926 113.917 67.3643 113.859 69.8127L113.743 74.7444L113.742 74.7558C113.74 74.767 113.738 74.7843 113.735 74.8071C113.729 74.8526 113.719 74.9204 113.702 75.0069C113.669 75.18 113.612 75.4279 113.515 75.7238C113.321 76.3158 112.969 77.0975 112.335 77.8563C111.074 79.3665 108.675 80.8138 104.107 80.4471Z" fill="#F4DF04" stroke="#F4DF04" stroke-width="0.3"/>
</g>
<g clip-path="url(#clip1_164_2758)">
<path d="M50.9782 24.0827L47.3539 22.4518L51.0511 20.8086L54.6754 22.4396L50.9782 24.0827Z" fill="#F4DF04" stroke="#F4DF04" stroke-width="0.3"/>
<path d="M59.0277 17.7529L62.1043 19.1374L59.0858 20.4789L51.9059 17.248L56.3876 15.2561L56.3979 15.2519C56.407 15.248 56.419 15.2427 56.4331 15.236C56.4612 15.2225 56.498 15.203 56.5364 15.1778C56.613 15.1274 56.6974 15.0527 56.729 14.9557C56.7938 14.7564 56.6291 14.4917 55.8922 14.1772L55.8913 14.1768C55.1809 13.8776 54.6503 13.6429 54.2977 13.4832C54.1215 13.4034 53.9897 13.3423 53.9021 13.3013C53.8584 13.2807 53.8257 13.2652 53.804 13.2549L53.7797 13.2433L53.7738 13.2404L53.7724 13.2398L53.7721 13.2396L53.772 13.2396L53.7656 13.2364L53.7584 13.2336L53.6299 13.2981C53.7584 13.2336 53.7583 13.2336 53.7582 13.2335L53.758 13.2334L53.7576 13.2333L53.7564 13.2328L53.7532 13.2316L53.7432 13.2278C53.7349 13.2248 53.7236 13.2207 53.7092 13.2159C53.6804 13.2064 53.6395 13.1937 53.5876 13.1801C53.4842 13.1531 53.3344 13.1217 53.1487 13.1048C52.7667 13.0702 52.2633 13.0999 51.7364 13.3201L51.735 13.3207C51.2512 13.5272 50.1305 14.0253 49.1326 14.4709C48.6333 14.6939 48.1641 14.9041 47.8197 15.0585L47.4086 15.2429L47.3928 15.2499L43.4954 13.4961L48.2161 11.4558L48.2181 11.455L48.2295 11.45C48.2385 11.446 48.2499 11.4405 48.2628 11.4336C48.2886 11.4198 48.3209 11.4 48.3521 11.3741C48.415 11.3219 48.4719 11.2459 48.4651 11.1461C48.4515 10.9467 48.1868 10.6723 47.3243 10.3135L47.3242 10.3135C46.4843 9.96421 45.9911 9.75659 45.708 9.63638C45.5665 9.57627 45.4776 9.53807 45.4243 9.51497L45.3691 9.49086L45.3648 9.48899C45.3581 9.48498 45.3488 9.47964 45.3371 9.47328C45.3131 9.46038 45.2784 9.44311 45.2331 9.42426C45.1432 9.38681 45.0074 9.34135 44.8276 9.31277C44.449 9.25259 43.9421 9.27697 43.351 9.52142L43.3509 9.52138L43.346 9.52356C42.6765 9.82112 38.1731 11.8226 34.7522 13.3515L34.6159 13.4125L34.7523 13.4739L49.0661 19.9151L45.369 21.5583L27.0659 13.3219L33.569 10.4316L33.7061 10.3707L33.5693 10.3091L30.5118 8.9332L33.8696 7.44084L36.9271 8.81674L37.0639 8.87829L37.201 8.81737L41.0825 7.09224L41.0838 7.09178C41.0897 7.08971 41.0989 7.08649 41.1113 7.08227C41.1362 7.07382 41.1739 7.06134 41.2238 7.04584C41.3235 7.01484 41.4716 6.97183 41.6617 6.9249C42.0425 6.83092 42.5892 6.72191 43.2533 6.6613C44.5724 6.54091 46.3735 6.60925 48.2843 7.3891C48.5587 7.50111 48.8189 7.60694 49.0658 7.70733C50.5831 8.32448 51.5953 8.73621 52.3175 9.11263C53.1468 9.54483 53.5888 9.92837 53.9565 10.5247L53.966 10.5235C53.9662 10.5292 53.9674 10.5349 53.9697 10.5403C54.0074 10.5636 54.0791 10.5836 54.0991 10.5863C54.1082 10.5871 54.1226 10.5881 54.1278 10.5883L54.1393 10.5886L54.2496 10.5898C54.2825 10.5912 54.3245 10.5937 54.3758 10.5981C54.5412 10.6121 54.8031 10.6452 55.1624 10.7224C55.8817 10.8771 56.99 11.2086 58.4915 11.9169L61.5219 13.346L61.5265 13.3486C61.5325 13.352 61.5418 13.3573 61.5539 13.3644C61.5781 13.3787 61.6136 13.4004 61.6571 13.4291C61.7441 13.4866 61.8628 13.5719 61.9866 13.6817C62.2343 13.9016 62.5013 14.2187 62.5783 14.6073C62.7314 15.3789 62.1397 16.4536 59.0394 17.6258L58.8795 17.6863L59.0277 17.7529Z" fill="#F4DF04" stroke="#F4DF04" stroke-width="0.3"/>
</g>
<defs>
<clipPath id="clip0_164_2758">
<rect width="28.0543" height="43.4842" fill="white" transform="translate(86.0273 42.2158)"/>
</clipPath>
<clipPath id="clip1_164_2758">
<rect width="19.3708" height="30.0247" fill="white" transform="matrix(0.913812 -0.406138 0.911922 0.410365 23.5977 11.8838)"/>
</clipPath>
</defs>
</svg>
