<svg width="29" height="42" viewBox="0 0 29 42" fill="none" xmlns="http://www.w3.org/2000/svg">
<mask id="path-1-inside-1_1140_24814" fill="white">
<path fill-rule="evenodd" clip-rule="evenodd" d="M12.9964 41.9885H20.4996C25.1216 41.9885 28.8732 38.2455 28.8582 33.6342V22.3604C28.8582 21.507 28.498 20.6686 27.8528 20.0996C27.2225 19.5307 26.3521 19.2462 25.4968 19.3361C24.8713 19.3966 24.3023 19.6608 23.8465 20.0619V17.9299C23.8465 16.2531 22.4809 14.8906 20.8002 14.8906C20.0578 14.8906 19.3769 15.1565 18.848 15.5978C18.8186 13.9462 17.4645 12.6133 15.8022 12.6133C15.0746 12.6133 14.4061 12.8686 13.8818 13.2942V9.11028C13.8818 8.25688 13.5217 7.43343 12.8764 6.84953C12.2461 6.26562 11.3757 5.98116 10.5204 6.07099C8.97473 6.22071 7.77422 7.61309 7.77422 9.24502V26.7172L6.67875 24.9655C6.0935 24.0372 5.35819 23.2287 4.51783 22.54C3.90257 22.031 3.10723 21.8064 2.32689 21.9112C1.54656 22.016 0.841261 22.4352 0.376063 23.079C-0.0291101 23.648 -0.119148 24.3966 0.165973 25.0403L1.47153 28.0946C1.83168 28.9181 2.16182 29.7415 2.47696 30.565C3.37734 32.9006 4.05263 34.5175 4.54784 35.5206C4.77294 35.9698 5.1631 36.7184 5.59829 37.5418C7.05391 40.2817 9.89012 41.9885 12.9964 41.9885ZM13.8818 15.2312C14.0739 14.357 14.8518 13.7062 15.7872 13.7062C16.8676 13.7062 17.738 14.5746 17.738 15.6526V22.0006C17.738 22.1578 17.7979 22.2962 17.8973 22.3954C17.9975 22.5045 18.1429 22.5712 18.3091 22.5712C18.6243 22.5712 18.8644 22.3167 18.8644 22.0172V17.9299C18.8644 16.8519 19.7347 15.9836 20.8152 15.9836C21.8957 15.9836 22.766 16.8519 22.766 17.9299V22.1904C22.7558 22.2957 22.7506 22.4024 22.7506 22.5101V25.0254C22.7506 25.3271 22.9855 25.5599 23.2697 25.5782C23.2867 25.5797 23.3039 25.5805 23.3213 25.5805C23.566 25.5805 23.7807 25.4213 23.8355 25.1921C23.8521 25.1392 23.8611 25.0831 23.8611 25.0254V22.5101C23.8611 21.4321 24.6264 20.5338 25.6018 20.429C26.1721 20.3691 26.6973 20.5488 27.1175 20.9231C27.5226 21.2824 27.7627 21.8064 27.7627 22.3604V33.6342C27.7627 37.6317 24.5063 40.8806 20.4996 40.8806H12.9814C10.2803 40.8806 7.81923 39.3984 6.5587 37.0178C6.40556 36.7232 6.25641 36.4385 6.11778 36.1738C5.87604 35.7124 5.66631 35.312 5.52326 35.0266C5.04305 34.0684 4.36776 32.4364 3.49739 30.1607L3.49738 30.1607C3.16724 29.3223 2.83711 28.4839 2.47696 27.6604L1.1714 24.6062C1.05135 24.3217 1.08136 23.9773 1.26144 23.7228C1.54656 23.3186 1.96674 23.0641 2.46195 23.0042C2.95716 22.9443 3.43737 23.079 3.81253 23.3934C4.56285 24.0073 5.20812 24.7409 5.73335 25.5494L7.84925 28.9181C7.9693 29.1277 8.22441 29.2175 8.46451 29.1576C8.70461 29.0977 8.86968 28.8731 8.86968 28.6336V9.26C8.86968 8.19699 9.63501 7.28371 10.6104 7.17891C11.1807 7.11902 11.7059 7.29868 12.1261 7.67298C12.5312 8.0323 12.7713 8.55632 12.7713 9.11028V15.3447C12.7611 15.4459 12.7559 15.5486 12.7559 15.6526V24.0218C12.7559 24.3337 13.0068 24.5719 13.3038 24.5758C13.3114 24.5761 13.319 24.5762 13.3266 24.5762C13.6417 24.5762 13.8818 24.3217 13.8818 24.0223V15.2312Z"/>
</mask>
<path fill-rule="evenodd" clip-rule="evenodd" d="M12.9964 41.9885H20.4996C25.1216 41.9885 28.8732 38.2455 28.8582 33.6342V22.3604C28.8582 21.507 28.498 20.6686 27.8528 20.0996C27.2225 19.5307 26.3521 19.2462 25.4968 19.3361C24.8713 19.3966 24.3023 19.6608 23.8465 20.0619V17.9299C23.8465 16.2531 22.4809 14.8906 20.8002 14.8906C20.0578 14.8906 19.3769 15.1565 18.848 15.5978C18.8186 13.9462 17.4645 12.6133 15.8022 12.6133C15.0746 12.6133 14.4061 12.8686 13.8818 13.2942V9.11028C13.8818 8.25688 13.5217 7.43343 12.8764 6.84953C12.2461 6.26562 11.3757 5.98116 10.5204 6.07099C8.97473 6.22071 7.77422 7.61309 7.77422 9.24502V26.7172L6.67875 24.9655C6.0935 24.0372 5.35819 23.2287 4.51783 22.54C3.90257 22.031 3.10723 21.8064 2.32689 21.9112C1.54656 22.016 0.841261 22.4352 0.376063 23.079C-0.0291101 23.648 -0.119148 24.3966 0.165973 25.0403L1.47153 28.0946C1.83168 28.9181 2.16182 29.7415 2.47696 30.565C3.37734 32.9006 4.05263 34.5175 4.54784 35.5206C4.77294 35.9698 5.1631 36.7184 5.59829 37.5418C7.05391 40.2817 9.89012 41.9885 12.9964 41.9885ZM13.8818 15.2312C14.0739 14.357 14.8518 13.7062 15.7872 13.7062C16.8676 13.7062 17.738 14.5746 17.738 15.6526V22.0006C17.738 22.1578 17.7979 22.2962 17.8973 22.3954C17.9975 22.5045 18.1429 22.5712 18.3091 22.5712C18.6243 22.5712 18.8644 22.3167 18.8644 22.0172V17.9299C18.8644 16.8519 19.7347 15.9836 20.8152 15.9836C21.8957 15.9836 22.766 16.8519 22.766 17.9299V22.1904C22.7558 22.2957 22.7506 22.4024 22.7506 22.5101V25.0254C22.7506 25.3271 22.9855 25.5599 23.2697 25.5782C23.2867 25.5797 23.3039 25.5805 23.3213 25.5805C23.566 25.5805 23.7807 25.4213 23.8355 25.1921C23.8521 25.1392 23.8611 25.0831 23.8611 25.0254V22.5101C23.8611 21.4321 24.6264 20.5338 25.6018 20.429C26.1721 20.3691 26.6973 20.5488 27.1175 20.9231C27.5226 21.2824 27.7627 21.8064 27.7627 22.3604V33.6342C27.7627 37.6317 24.5063 40.8806 20.4996 40.8806H12.9814C10.2803 40.8806 7.81923 39.3984 6.5587 37.0178C6.40556 36.7232 6.25641 36.4385 6.11778 36.1738C5.87604 35.7124 5.66631 35.312 5.52326 35.0266C5.04305 34.0684 4.36776 32.4364 3.49739 30.1607L3.49738 30.1607C3.16724 29.3223 2.83711 28.4839 2.47696 27.6604L1.1714 24.6062C1.05135 24.3217 1.08136 23.9773 1.26144 23.7228C1.54656 23.3186 1.96674 23.0641 2.46195 23.0042C2.95716 22.9443 3.43737 23.079 3.81253 23.3934C4.56285 24.0073 5.20812 24.7409 5.73335 25.5494L7.84925 28.9181C7.9693 29.1277 8.22441 29.2175 8.46451 29.1576C8.70461 29.0977 8.86968 28.8731 8.86968 28.6336V9.26C8.86968 8.19699 9.63501 7.28371 10.6104 7.17891C11.1807 7.11902 11.7059 7.29868 12.1261 7.67298C12.5312 8.0323 12.7713 8.55632 12.7713 9.11028V15.3447C12.7611 15.4459 12.7559 15.5486 12.7559 15.6526V24.0218C12.7559 24.3337 13.0068 24.5719 13.3038 24.5758C13.3114 24.5761 13.319 24.5762 13.3266 24.5762C13.6417 24.5762 13.8818 24.3217 13.8818 24.0223V15.2312Z" fill="#F2DC00"/>
<path d="M28.8582 33.6342H28.5582L28.5582 33.6352L28.8582 33.6342ZM27.8528 20.0996L27.6517 20.3223L27.6544 20.3247L27.8528 20.0996ZM25.4968 19.3361L25.5257 19.6347L25.5281 19.6344L25.4968 19.3361ZM23.8465 20.0619H23.5465V20.7256L24.0447 20.2871L23.8465 20.0619ZM18.848 15.5978L18.548 15.6031L18.5591 16.2296L19.0402 15.8282L18.848 15.5978ZM13.8818 13.2942H13.5818V13.9242L14.0709 13.5271L13.8818 13.2942ZM12.8764 6.84953L12.6725 7.06961L12.6751 7.07197L12.8764 6.84953ZM10.5204 6.07099L10.5493 6.3696L10.5517 6.36935L10.5204 6.07099ZM7.77422 26.7172L7.51986 26.8763L8.07421 27.7627V26.7172H7.77422ZM6.67875 24.9655L6.93311 24.8064L6.93252 24.8055L6.67875 24.9655ZM4.51783 22.54L4.32659 22.7712L4.32767 22.7721L4.51783 22.54ZM0.376063 23.079L0.132896 22.9033L0.131698 22.905L0.376063 23.079ZM0.165973 25.0403L0.441851 24.9224L0.440276 24.9189L0.165973 25.0403ZM1.47153 28.0946L1.19566 28.2125L1.19667 28.2148L1.47153 28.0946ZM2.47696 30.565L2.19677 30.6722L2.19704 30.6729L2.47696 30.565ZM4.54784 35.5206L4.27883 35.6535L4.27964 35.6551L4.54784 35.5206ZM5.59829 37.5418L5.33305 37.682L5.33336 37.6826L5.59829 37.5418ZM13.8818 15.2312L13.5888 15.1668L13.5818 15.1986V15.2312H13.8818ZM17.8973 22.3954L18.1184 22.1923L18.1092 22.1831L17.8973 22.3954ZM22.766 22.1904L23.0646 22.2193L23.066 22.2049V22.1904H22.766ZM23.2697 25.5782L23.2973 25.2793L23.289 25.2788L23.2697 25.5782ZM23.8355 25.1921L23.5493 25.1019L23.5461 25.1121L23.5437 25.1224L23.8355 25.1921ZM25.6018 20.429L25.5705 20.1306L25.5698 20.1307L25.6018 20.429ZM27.1175 20.9231L26.9179 21.1471L26.9184 21.1475L27.1175 20.9231ZM6.5587 37.0178L6.29249 37.1562L6.29357 37.1582L6.5587 37.0178ZM6.11778 36.1738L5.85204 36.313H5.85204L6.11778 36.1738ZM5.52326 35.0266L5.25505 35.161L5.52326 35.0266ZM3.49739 30.1607L3.21649 30.2661L3.21719 30.2679L3.49739 30.1607ZM3.49738 30.1607L3.77832 30.0553L3.77652 30.0508L3.49738 30.1607ZM2.47696 27.6604L2.20109 27.7783L2.2021 27.7806L2.47696 27.6604ZM1.1714 24.6062L0.895004 24.7228L0.895546 24.7241L1.1714 24.6062ZM1.26144 23.7228L1.50634 23.8961L1.50659 23.8957L1.26144 23.7228ZM2.46195 23.0042L2.49797 23.302H2.49797L2.46195 23.0042ZM3.81253 23.3934L3.61982 23.6234L3.62257 23.6256L3.81253 23.3934ZM5.73335 25.5494L5.98742 25.3898L5.98492 25.386L5.73335 25.5494ZM7.84925 28.9181L8.10979 28.7688L8.10329 28.7585L7.84925 28.9181ZM8.46451 29.1576L8.53711 29.4487L8.46451 29.1576ZM10.6104 7.17891L10.5791 6.88055L10.5784 6.88062L10.6104 7.17891ZM12.1261 7.67298L11.9265 7.89699L11.927 7.89743L12.1261 7.67298ZM12.7713 15.3447L13.0698 15.3749L13.0713 15.3598V15.3447H12.7713ZM13.3038 24.5758L13.316 24.2759L13.3077 24.2758L13.3038 24.5758ZM20.4996 41.6885H12.9964V42.2885H20.4996V41.6885ZM28.5582 33.6352C28.5727 38.0792 24.9568 41.6885 20.4996 41.6885V42.2885C25.2864 42.2885 29.1737 38.4118 29.1582 33.6332L28.5582 33.6352ZM28.5582 22.3604V33.6342H29.1582V22.3604H28.5582ZM27.6544 20.3247C28.2321 20.834 28.5582 21.5891 28.5582 22.3604H29.1582C29.1582 21.4249 28.764 20.5031 28.0512 19.8746L27.6544 20.3247ZM25.5281 19.6344C26.2991 19.5534 27.0849 19.8107 27.6518 20.3223L28.0538 19.8769C27.3601 19.2507 26.4051 18.939 25.4654 19.0377L25.5281 19.6344ZM24.0447 20.2871C24.4565 19.9247 24.9672 19.6888 25.5257 19.6347L25.4678 19.0375C24.7753 19.1045 24.148 19.3969 23.6483 19.8367L24.0447 20.2871ZM24.1465 20.0619V17.9299H23.5465V20.0619H24.1465ZM24.1465 17.9299C24.1465 16.0867 22.646 14.5906 20.8002 14.5906V15.1906C22.3159 15.1906 23.5465 16.4194 23.5465 17.9299H24.1465ZM20.8002 14.5906C19.9849 14.5906 19.2365 14.8828 18.6558 15.3675L19.0402 15.8282C19.5172 15.4301 20.1307 15.1906 20.8002 15.1906V14.5906ZM19.1479 15.5925C19.1157 13.7769 17.6278 12.3133 15.8022 12.3133V12.9133C17.3013 12.9133 18.5216 14.1154 18.548 15.6031L19.1479 15.5925ZM15.8022 12.3133C15.0032 12.3133 14.2684 12.5939 13.6927 13.0613L14.0709 13.5271C14.5437 13.1433 15.146 12.9133 15.8022 12.9133V12.3133ZM13.5818 9.11028V13.2942H14.1818V9.11028H13.5818ZM12.6751 7.07197C13.2573 7.59876 13.5818 8.34129 13.5818 9.11028H14.1818C14.1818 8.17248 13.7861 7.2681 13.0777 6.62708L12.6751 7.07197ZM10.5517 6.36935C11.3224 6.28841 12.1067 6.54538 12.6725 7.0696L13.0803 6.62945C12.3856 5.98587 11.4291 5.6739 10.4891 5.77263L10.5517 6.36935ZM8.07421 9.24502C8.07421 7.75422 9.17035 6.50316 10.5493 6.36959L10.4915 5.77239C8.7791 5.93825 7.47422 7.47196 7.47422 9.24502H8.07421ZM8.07421 26.7172V9.24502H7.47422V26.7172H8.07421ZM6.42439 25.1245L7.51986 26.8763L8.02857 26.5581L6.93311 24.8064L6.42439 25.1245ZM4.32767 22.7721C5.14532 23.4422 5.8584 24.2268 6.42498 25.1255L6.93252 24.8055C6.3286 23.8476 5.57105 23.0153 4.70799 22.308L4.32767 22.7721ZM2.36683 22.2086C3.06446 22.1149 3.77595 22.3156 4.32659 22.7712L4.70907 22.3089C4.02918 21.7464 3.15 21.498 2.28696 21.6139L2.36683 22.2086ZM0.619224 23.2547C1.03604 22.6779 1.66774 22.3024 2.36683 22.2086L2.28696 21.6139C1.42538 21.7296 0.646477 22.1926 0.132901 22.9033L0.619224 23.2547ZM0.440276 24.9189C0.199786 24.3758 0.274204 23.7392 0.620427 23.2531L0.131698 22.905C-0.332424 23.5567 -0.438083 24.4173 -0.10833 25.1618L0.440276 24.9189ZM1.74738 27.9767L0.441828 24.9224L-0.109882 25.1583L1.19567 28.2125L1.74738 27.9767ZM2.75714 30.4577C2.4409 29.6314 2.10896 28.8034 1.74639 27.9744L1.19667 28.2148C1.5544 29.0327 1.88275 29.8516 2.19677 30.6722L2.75714 30.4577ZM4.81685 35.3878C4.32815 34.3979 3.65701 32.792 2.75688 30.457L2.19704 30.6729C3.09768 33.0091 3.77711 34.6371 4.27883 35.6534L4.81685 35.3878ZM5.86353 37.4017C5.4284 36.5783 5.03956 35.8322 4.81604 35.3862L4.27964 35.6551C4.50631 36.1074 4.8978 36.8585 5.33305 37.682L5.86353 37.4017ZM12.9964 41.6885C10.0011 41.6885 7.2668 40.043 5.86322 37.4011L5.33336 37.6826C6.84101 40.5204 9.77909 42.2885 12.9964 42.2885V41.6885ZM14.1748 15.2956C14.3371 14.5569 14.9948 14.0062 15.7872 14.0062V13.4062C14.7088 13.4062 13.8107 14.1571 13.5888 15.1668L14.1748 15.2956ZM15.7872 14.0062C16.7026 14.0062 17.438 14.7409 17.438 15.6526H18.038C18.038 14.4083 17.0326 13.4062 15.7872 13.4062V14.0062ZM17.438 15.6526V22.0006H18.038V15.6526H17.438ZM17.438 22.0006C17.438 22.2361 17.5287 22.4513 17.6853 22.6077L18.1092 22.1831C18.0672 22.1411 18.038 22.0794 18.038 22.0006H17.438ZM17.6763 22.5983C17.8344 22.7704 18.0604 22.8712 18.3091 22.8712V22.2712C18.2253 22.2712 18.1606 22.2386 18.1182 22.1924L17.6763 22.5983ZM18.3091 22.8712C18.7946 22.8712 19.1644 22.4777 19.1644 22.0172H18.5644C18.5644 22.1556 18.454 22.2712 18.3091 22.2712V22.8712ZM19.1644 22.0172V17.9299H18.5644V22.0172H19.1644ZM19.1644 17.9299C19.1644 17.0183 19.8998 16.2836 20.8152 16.2836V15.6836C19.5697 15.6836 18.5644 16.6856 18.5644 17.9299H19.1644ZM20.8152 16.2836C21.7306 16.2836 22.466 17.0183 22.466 17.9299H23.066C23.066 16.6856 22.0607 15.6836 20.8152 15.6836V16.2836ZM22.466 17.9299V22.1904H23.066V17.9299H22.466ZM23.0506 22.5101C23.0506 22.4121 23.0554 22.3151 23.0646 22.2193L22.4674 22.1614C22.4563 22.2763 22.4506 22.3927 22.4506 22.5101H23.0506ZM23.0506 25.0254V22.5101H22.4506V25.0254H23.0506ZM23.289 25.2788C23.1562 25.2702 23.0506 25.1625 23.0506 25.0254H22.4506C22.4506 25.4917 22.8148 25.8495 23.2504 25.8775L23.289 25.2788ZM23.2421 25.8769C23.2683 25.8793 23.2947 25.8805 23.3213 25.8805V25.2805C23.3131 25.2805 23.3051 25.2802 23.2973 25.2794L23.2421 25.8769ZM23.3213 25.8805C23.6925 25.8805 24.0375 25.6377 24.1273 25.2618L23.5437 25.1224C23.524 25.2049 23.4395 25.2805 23.3213 25.2805V25.8805ZM23.5611 25.0254C23.5611 25.0521 23.557 25.0778 23.5493 25.1019L24.1216 25.2823C24.1473 25.2006 24.1611 25.1142 24.1611 25.0254H23.5611ZM23.5611 22.5101V25.0254H24.1611V22.5101H23.5611ZM25.5698 20.1307C24.4249 20.2537 23.5611 21.2967 23.5611 22.5101H24.1611C24.1611 21.5676 24.8279 20.8139 25.6339 20.7273L25.5698 20.1307ZM27.317 20.6991C26.8362 20.2707 26.2279 20.0616 25.5705 20.1306L25.6331 20.7274C26.1162 20.6766 26.5584 20.8268 26.9179 21.1471L27.317 20.6991ZM28.0627 22.3604C28.0627 21.72 27.7854 21.1145 27.3165 20.6986L26.9184 21.1475C27.2598 21.4503 27.4627 21.8928 27.4627 22.3604H28.0627ZM28.0627 33.6342V22.3604H27.4627V33.6342H28.0627ZM20.4996 41.1806C24.6714 41.1806 28.0627 37.798 28.0627 33.6342H27.4627C27.4627 37.4653 24.3413 40.5806 20.4996 40.5806V41.1806ZM12.9814 41.1806H20.4996V40.5806H12.9814V41.1806ZM6.29357 37.1582C7.60617 39.6371 10.1693 41.1806 12.9814 41.1806V40.5806C10.3913 40.5806 8.0323 39.1597 6.82382 36.8774L6.29357 37.1582ZM5.85204 36.313C5.99069 36.5777 6.13962 36.862 6.2925 37.1562L6.82489 36.8795C6.6715 36.5843 6.52212 36.2992 6.38352 36.0346L5.85204 36.313ZM5.25505 35.161C5.39961 35.4494 5.61086 35.8527 5.85204 36.313L6.38352 36.0346C6.14123 35.5721 5.93301 35.1746 5.79146 34.8922L5.25505 35.161ZM3.21719 30.2679C4.08747 32.5434 4.76743 34.188 5.25505 35.161L5.79146 34.8922C5.31867 33.9488 4.64805 32.3295 3.7776 30.0536L3.21719 30.2679ZM3.21648 30.266L3.21649 30.2661L3.77829 30.0554L3.77828 30.0553L3.21648 30.266ZM2.2021 27.7806C2.55964 28.5981 2.88776 29.4313 3.21824 30.2706L3.77652 30.0508C3.44673 29.2132 3.11458 28.3696 2.75182 27.5402L2.2021 27.7806ZM0.895546 24.7241L2.2011 27.7783L2.75281 27.5425L1.44726 24.4882L0.895546 24.7241ZM1.01654 23.5495C0.773732 23.8927 0.736544 24.3473 0.895007 24.7228L1.4478 24.4895C1.36616 24.2961 1.38899 24.0619 1.50634 23.8961L1.01654 23.5495ZM2.42593 22.7063C1.84547 22.7765 1.34972 23.0772 1.01629 23.5499L1.50659 23.8957C1.7434 23.56 2.08801 23.3516 2.49797 23.302L2.42593 22.7063ZM4.00522 23.1635C3.56325 22.7931 2.9992 22.637 2.42593 22.7063L2.49797 23.302C2.91513 23.2515 3.31149 23.365 3.61983 23.6234L4.00522 23.1635ZM5.98492 25.386C5.44382 24.553 4.77814 23.7958 4.00249 23.1612L3.62257 23.6256C4.34755 24.2188 4.97242 24.9288 5.48177 25.7128L5.98492 25.386ZM8.10329 28.7585L5.98739 25.3898L5.4793 25.709L7.5952 29.0776L8.10329 28.7585ZM8.39191 28.8665C8.26139 28.8991 8.15289 28.8446 8.10957 28.769L7.58892 29.0672C7.7857 29.4107 8.18742 29.5359 8.53711 29.4487L8.39191 28.8665ZM8.56968 28.6336C8.56968 28.7417 8.49242 28.8415 8.39191 28.8665L8.53711 29.4487C8.9168 29.354 9.16968 29.0046 9.16968 28.6336H8.56968ZM8.56968 9.26V28.6336H9.16968V9.26H8.56968ZM10.5784 6.88062C9.4322 7.00377 8.56968 8.06291 8.56968 9.26H9.16968C9.16968 8.33108 9.83782 7.56365 10.6425 7.47719L10.5784 6.88062ZM12.3256 7.44897C11.8448 7.02064 11.2365 6.81151 10.5791 6.88055L10.6418 7.47727C11.1248 7.42653 11.567 7.57672 11.9265 7.89699L12.3256 7.44897ZM13.0713 9.11028C13.0713 8.4699 12.794 7.86439 12.3251 7.44853L11.927 7.89743C12.2684 8.20022 12.4713 8.64274 12.4713 9.11028H13.0713ZM13.0713 15.3447V9.11028H12.4713V15.3447H13.0713ZM12.4729 15.3145C12.4616 15.4258 12.4559 15.5385 12.4559 15.6526H13.0559C13.0559 15.5587 13.0606 15.4661 13.0698 15.3749L12.4729 15.3145ZM12.4559 15.6526V24.0218H13.0559V15.6526H12.4559ZM12.4559 24.0218C12.4559 24.5039 12.8449 24.8698 13.2999 24.8757L13.3077 24.2758C13.1688 24.274 13.0559 24.1635 13.0559 24.0218H12.4559ZM13.3266 24.2762C13.323 24.2762 13.3195 24.2761 13.316 24.276L13.2916 24.8755C13.3033 24.876 13.3149 24.8762 13.3266 24.8762V24.2762ZM13.5818 24.0223C13.5818 24.1607 13.4714 24.2762 13.3266 24.2762V24.8762C13.812 24.8762 14.1818 24.4827 14.1818 24.0223H13.5818ZM13.5818 15.2312V24.0223H14.1818V15.2312H13.5818Z" fill="#0F0F10" mask="url(#path-1-inside-1_1140_24814)"/>
<path d="M13.8076 3.61807H1.59235C1.37208 3.61807 1.18711 3.44273 1.18711 3.21412C1.18711 2.99519 1.36236 2.81016 1.59235 2.81016H13.8076C14.0266 2.81016 14.2108 2.98359 14.2128 3.21037C14.1995 3.43754 14.0176 3.61807 13.8076 3.61807Z" fill="#F2DC00" stroke="#0F0F10" stroke-width="0.3"/>
<path d="M2.26704 3.10528L2.16061 3.21146L2.26704 3.31765L4.54802 5.59338C4.69936 5.74438 4.69936 6.00854 4.54802 6.15954C4.46924 6.23814 4.37159 6.28042 4.26379 6.28042C4.16886 6.28042 4.05678 6.23657 3.97957 6.15954L1.30843 3.49455C1.15708 3.34355 1.15708 3.07938 1.30843 2.92838L3.97957 0.263393C4.13111 0.112202 4.39648 0.112202 4.54802 0.263393C4.69936 0.414392 4.69936 0.678554 4.54802 0.829553L2.26704 3.10528Z" fill="#F2DC00" stroke="#0F0F10" stroke-width="0.3"/>
</svg>
