<svg width="86" height="80" viewBox="0 0 86 80" fill="none" xmlns="http://www.w3.org/2000/svg">
<path d="M80.9016 1L48.1016 25.4L54.2016 11L80.9016 1Z" fill="#E17726" stroke="#E17726" stroke-linecap="round" stroke-linejoin="round"/>
<path d="M5.10156 1L37.7016 25.6L31.9016 11L5.10156 1Z" fill="#E27625" stroke="#E27625" stroke-linecap="round" stroke-linejoin="round"/>
<path d="M69.0969 57.5L60.2969 70.9L79.0969 76.1L84.3969 57.8L69.0969 57.5Z" fill="#E27625" stroke="#E27625" stroke-linecap="round" stroke-linejoin="round"/>
<path d="M1.69922 57.8L6.99922 76.1L25.6992 70.9L16.9992 57.5L1.69922 57.8Z" fill="#E27625" stroke="#E27625" stroke-linecap="round" stroke-linejoin="round"/>
<path d="M24.7 34.8996L19.5 42.7996L38 43.5996L37.4 23.5996L24.7 34.8996Z" fill="#E27625" stroke="#E27625" stroke-linecap="round" stroke-linejoin="round"/>
<path d="M61.4016 34.9004L48.5016 23.4004L48.1016 43.6004L66.6016 42.8004L61.4016 34.9004Z" fill="#E27625" stroke="#E27625" stroke-linecap="round" stroke-linejoin="round"/>
<path d="M25.6992 70.9004L36.8992 65.5004L27.1992 57.9004L25.6992 70.9004Z" fill="#E27625" stroke="#E27625" stroke-linecap="round" stroke-linejoin="round"/>
<path d="M49.1992 65.5004L60.2992 70.9004L58.7992 57.9004L49.1992 65.5004Z" fill="#E27625" stroke="#E27625" stroke-linecap="round" stroke-linejoin="round"/>
<path d="M60.2992 70.9L49.1992 65.5L50.0992 72.7L49.9992 75.8L60.2992 70.9Z" fill="#D5BFB2" stroke="#D5BFB2" stroke-linecap="round" stroke-linejoin="round"/>
<path d="M25.6992 70.9L36.0992 75.8L35.9992 72.7L36.8992 65.5L25.6992 70.9Z" fill="#D5BFB2" stroke="#D5BFB2" stroke-linecap="round" stroke-linejoin="round"/>
<path d="M36.3 53.1004L27 50.4004L33.5 47.4004L36.3 53.1004Z" fill="#233447" stroke="#233447" stroke-linecap="round" stroke-linejoin="round"/>
<path d="M49.8008 53.1004L52.5008 47.4004L59.1008 50.4004L49.8008 53.1004Z" fill="#233447" stroke="#233447" stroke-linecap="round" stroke-linejoin="round"/>
<path d="M25.7 70.9L27.3 57.5L17 57.8L25.7 70.9Z" fill="#CC6228" stroke="#CC6228" stroke-linecap="round" stroke-linejoin="round"/>
<path d="M58.8008 57.5L60.3008 70.9L69.1008 57.8L58.8008 57.5Z" fill="#CC6228" stroke="#CC6228" stroke-linecap="round" stroke-linejoin="round"/>
<path d="M66.6016 42.8008L48.1016 43.6008L49.8016 53.1008L52.5016 47.4008L59.1016 50.4008L66.6016 42.8008Z" fill="#CC6228" stroke="#CC6228" stroke-linecap="round" stroke-linejoin="round"/>
<path d="M27 50.4008L33.5 47.4008L36.3 53.1008L38 43.6008L19.5 42.8008L27 50.4008Z" fill="#CC6228" stroke="#CC6228" stroke-linecap="round" stroke-linejoin="round"/>
<path d="M19.5 42.8008L27.2 57.9008L27 50.4008L19.5 42.8008Z" fill="#E27525" stroke="#E27525" stroke-linecap="round" stroke-linejoin="round"/>
<path d="M59.1008 50.4008L58.8008 57.9008L66.6008 42.8008L59.1008 50.4008Z" fill="#E27525" stroke="#E27525" stroke-linecap="round" stroke-linejoin="round"/>
<path d="M38.0008 43.6016L36.3008 53.1016L38.4008 64.4016L38.9008 49.5016L38.0008 43.6016Z" fill="#E27525" stroke="#E27525" stroke-linecap="round" stroke-linejoin="round"/>
<path d="M48.0992 43.6016L47.1992 49.5016L47.5992 64.4016L49.7992 53.1016L48.0992 43.6016Z" fill="#E27525" stroke="#E27525" stroke-linecap="round" stroke-linejoin="round"/>
<path d="M49.8016 53.1004L47.6016 64.4004L49.2016 65.5004L58.8016 57.9004L59.1016 50.4004L49.8016 53.1004Z" fill="#F5841F" stroke="#F5841F" stroke-linecap="round" stroke-linejoin="round"/>
<path d="M27 50.4004L27.2 57.9004L36.9 65.5004L38.4 64.4004L36.3 53.1004L27 50.4004Z" fill="#F5841F" stroke="#F5841F" stroke-linecap="round" stroke-linejoin="round"/>
<path d="M49.9992 75.8004L50.0992 72.7004L49.1992 72.0004H36.7992L35.9992 72.7004L36.0992 75.8004L25.6992 70.9004L29.2992 73.9004L36.6992 79.0004H49.2992L56.6992 73.9004L60.2992 70.9004L49.9992 75.8004Z" fill="#C0AC9D" stroke="#C0AC9D" stroke-linecap="round" stroke-linejoin="round"/>
<path d="M49.2 65.5004L47.6 64.4004H38.4L36.9 65.5004L36 72.7004L36.8 72.0004H49.2L50.1 72.7004L49.2 65.5004Z" fill="#161616" stroke="#161616" stroke-linecap="round" stroke-linejoin="round"/>
<path d="M82.2992 27L85.0992 13.5L80.8992 1L49.1992 24.6L61.3992 34.9L78.5992 39.9L82.3992 35.5L80.7992 34.3L83.3992 31.9L81.3992 30.3L83.9992 28.3L82.2992 27Z" fill="#763E1A" stroke="#763E1A" stroke-linecap="round" stroke-linejoin="round"/>
<path d="M1 13.5L3.8 27L2 28.3L4.6 30.3L2.6 31.9L5.3 34.3L3.6 35.5L7.4 39.9L24.7 34.9L36.9 24.6L5.1 1L1 13.5Z" fill="#763E1A" stroke="#763E1A" stroke-linecap="round" stroke-linejoin="round"/>
<path d="M78.6008 39.9004L61.4008 34.9004L66.6008 42.8004L58.8008 57.9004L69.1008 57.8004H84.4008L78.6008 39.9004Z" fill="#F5841F" stroke="#F5841F" stroke-linecap="round" stroke-linejoin="round"/>
<path d="M24.6992 34.9004L7.39922 39.9004L1.69922 57.8004H16.9992L27.1992 57.9004L19.4992 42.8004L24.6992 34.9004Z" fill="#F5841F" stroke="#F5841F" stroke-linecap="round" stroke-linejoin="round"/>
<path d="M48.0984 43.6L49.1984 24.6L54.1984 11H31.8984L36.8984 24.6L37.9984 43.6L38.3984 49.6V64.4H47.5984V49.6L48.0984 43.6Z" fill="#F5841F" stroke="#F5841F" stroke-linecap="round" stroke-linejoin="round"/>
</svg>
