<svg width="175" height="113" viewBox="0 0 175 113" fill="none" xmlns="http://www.w3.org/2000/svg">
<path d="M87.2543 78.6293C87.2543 86.1503 67.8044 92.2264 43.8088 92.2264C19.8131 92.2264 0.363281 86.1133 0.363281 78.6293C0.363281 71.1083 19.8131 64.9951 43.8088 64.9951C67.8044 64.9951 87.2543 71.1083 87.2543 78.6293Z" fill="#03000A" stroke="#F9FD09" stroke-width="0.5" stroke-miterlimit="10"/>
<path d="M87.2543 78.6299V90.708C87.2543 98.229 67.8044 104.305 43.8088 104.305C19.8131 104.305 0.363281 98.192 0.363281 90.6709V78.6299C0.363281 86.1139 19.8131 92.227 43.8088 92.227C67.8044 92.227 87.2543 86.1139 87.2543 78.6299Z" fill="#03000A" stroke="#F9FD09" stroke-width="0.5" stroke-miterlimit="10"/>
<path d="M87.2543 61.0678C87.2543 68.5888 67.8044 74.6649 43.8088 74.6649C19.8131 74.6649 0.363281 68.5518 0.363281 61.0678C0.363281 53.5467 19.8131 47.4336 43.8088 47.4336C67.8044 47.4336 87.2543 53.5467 87.2543 61.0678Z" fill="#03000A" stroke="#F9FD09" stroke-width="0.5" stroke-miterlimit="10"/>
<path d="M87.2543 61.0684V73.1465C87.2543 80.6675 67.8044 86.7436 43.8088 86.7436C19.8131 86.7436 0.363281 80.6305 0.363281 73.1094V61.0684C0.363281 68.5523 19.8131 74.6655 43.8088 74.6655C67.8044 74.6655 87.2543 68.5523 87.2543 61.0684Z" fill="#03000A" stroke="#F9FD09" stroke-width="0.5" stroke-miterlimit="10"/>
<path d="M87.2543 42.1547C87.2543 49.6757 67.8044 55.7518 43.8088 55.7518C19.8131 55.7518 0.363281 49.6387 0.363281 42.1547C0.363281 34.6337 19.8131 28.5205 43.8088 28.5205C67.8044 28.5205 87.2543 34.6337 87.2543 42.1547Z" fill="#03000A" stroke="#F9FD09" stroke-width="0.5" stroke-miterlimit="10"/>
<path d="M87.2543 42.1553V54.2334C87.2543 61.7544 67.8044 67.8305 43.8088 67.8305C19.8131 67.8305 0.363281 61.7174 0.363281 54.1963V42.1553C0.363281 49.6393 19.8131 55.7524 43.8088 55.7524C67.8044 55.7524 87.2543 49.6393 87.2543 42.1553Z" fill="#03000A" stroke="#F9FD09" stroke-width="0.5" stroke-miterlimit="10"/>
<g clip-path="url(#clip0_164_2787)">
<path d="M48.4888 50.7426L45.0082 49.1764L48.5589 47.5983L52.0394 49.1646L48.4888 50.7426Z" fill="#F4DF04" stroke="#F4DF04" stroke-width="0.3"/>
<path d="M56.2373 44.653L59.1953 45.9841L56.2983 47.2717L49.3933 44.1644L53.7046 42.2483L53.7145 42.2442C53.7233 42.2405 53.735 42.2353 53.7487 42.2288C53.776 42.2157 53.8117 42.1968 53.8488 42.1724C53.9231 42.1235 54.0049 42.0512 54.0355 41.9571C54.0984 41.7638 53.9382 41.5079 53.2274 41.2046L53.2265 41.2042C52.5424 40.916 52.0314 40.69 51.6919 40.5363C51.5222 40.4594 51.3953 40.4006 51.311 40.361C51.2689 40.3413 51.2374 40.3264 51.2165 40.3164L51.1932 40.3052L51.1875 40.3025L51.1861 40.3018L51.1858 40.3017L51.1858 40.3017L51.1793 40.2985L51.1722 40.2957L51.0437 40.3602C51.1722 40.2957 51.1721 40.2957 51.172 40.2956L51.1718 40.2955L51.1713 40.2954L51.1702 40.2949L51.167 40.2937L51.1573 40.29C51.1493 40.2871 51.1382 40.2832 51.1243 40.2785C51.0964 40.2692 51.0567 40.2569 51.0065 40.2438C50.9064 40.2176 50.7614 40.1873 50.5816 40.1709C50.2114 40.1373 49.7242 40.1663 49.2151 40.3791L49.2137 40.3797C48.7477 40.5786 47.6682 41.0583 46.7072 41.4875C46.2263 41.7023 45.7743 41.9047 45.4427 42.0534L45.0467 42.231L45.0366 42.2355L41.2932 40.551L45.8345 38.5882L45.8363 38.5874L45.8476 38.5825C45.8563 38.5786 45.8674 38.5732 45.88 38.5665C45.9052 38.553 45.9365 38.5338 45.9668 38.5087C46.0279 38.4579 46.0831 38.3842 46.0765 38.2875C46.0633 38.0943 45.8068 37.8292 44.9755 37.4833L44.9754 37.4833C44.1665 37.1469 43.6915 36.947 43.4189 36.8312C43.2826 36.7733 43.197 36.7365 43.1457 36.7143L43.0925 36.6911L43.0888 36.6895C43.0823 36.6856 43.0734 36.6805 43.0622 36.6744C43.039 36.6619 43.0053 36.6452 42.9615 36.6269C42.8744 36.5906 42.7428 36.5466 42.5684 36.5188C42.2007 36.4604 41.7098 36.4844 41.139 36.7205L41.139 36.7204L41.1341 36.7226C40.4892 37.0092 36.1519 38.9369 32.8572 40.4094L32.7209 40.4703L32.8573 40.5317L46.6381 46.7331L43.0874 48.3112L25.4695 40.3831L31.7278 37.6017L31.8649 37.5408L31.7281 37.4792L28.7883 36.1563L32.0122 34.7235L34.9519 36.0464L35.0887 36.1079L35.2258 36.047L38.9639 34.3856L38.9648 34.3853C38.9704 34.3833 38.9792 34.3802 38.9912 34.3762C39.015 34.3681 39.0513 34.3561 39.0992 34.3412C39.1951 34.3114 39.3375 34.27 39.5204 34.2249C39.8866 34.1345 40.4126 34.0296 41.0513 33.9713C42.3196 33.8556 44.0519 33.9211 45.8904 34.6715C46.1548 34.7794 46.4054 34.8813 46.6431 34.978C48.1045 35.5724 49.079 35.9688 49.7743 36.3312C50.5722 36.747 50.9975 37.116 51.3513 37.6899L51.3609 37.6888C51.361 37.6945 51.3622 37.7001 51.3645 37.7056C51.4022 37.7288 51.4739 37.7489 51.494 37.7515C51.503 37.7524 51.5174 37.7533 51.5227 37.7535L51.5341 37.7538L51.6401 37.755C51.6715 37.7563 51.7117 37.7587 51.7607 37.7629C51.9194 37.7763 52.171 37.8081 52.5166 37.8824C53.2083 38.0311 54.275 38.3501 55.7208 39.0321L58.6391 40.4085L58.6434 40.4108C58.6492 40.4141 58.6581 40.4191 58.6697 40.426C58.6929 40.4397 58.7271 40.4606 58.7689 40.4882C58.8525 40.5434 58.9666 40.6254 59.0857 40.7311C59.324 40.9426 59.5808 41.2476 59.6549 41.6214C59.8021 42.3633 59.2334 43.3974 56.249 44.5258L56.0891 44.5863L56.2373 44.653Z" fill="#F4DF04" stroke="#F4DF04" stroke-width="0.3"/>
</g>
<path d="M173.952 78.6293C173.952 86.1503 154.502 92.2264 130.506 92.2264C106.51 92.2264 87.0605 86.1133 87.0605 78.6293C87.0605 71.1083 106.51 64.9951 130.506 64.9951C154.502 64.9951 173.952 71.1083 173.952 78.6293Z" fill="#03000A" stroke="#F9FD09" stroke-width="0.5" stroke-miterlimit="10"/>
<path d="M173.952 78.6299V90.708C173.952 98.229 154.502 104.305 130.506 104.305C106.51 104.305 87.0605 98.192 87.0605 90.6709V78.6299C87.0605 86.1139 106.51 92.227 130.506 92.227C154.502 92.227 173.952 86.1139 173.952 78.6299Z" fill="#03000A" stroke="#F9FD09" stroke-width="0.5" stroke-miterlimit="10"/>
<path d="M173.952 61.0678C173.952 68.5888 154.502 74.6649 130.506 74.6649C106.51 74.6649 87.0605 68.5518 87.0605 61.0678C87.0605 53.5467 106.51 47.4336 130.506 47.4336C154.502 47.4336 173.952 53.5467 173.952 61.0678Z" fill="#03000A" stroke="#F9FD09" stroke-width="0.5" stroke-miterlimit="10"/>
<path d="M173.952 61.0684V73.1465C173.952 80.6675 154.502 86.7436 130.506 86.7436C106.51 86.7436 87.0605 80.6305 87.0605 73.1094V61.0684C87.0605 68.5523 106.51 74.6655 130.506 74.6655C154.502 74.6655 173.952 68.5523 173.952 61.0684Z" fill="#03000A" stroke="#F9FD09" stroke-width="0.5" stroke-miterlimit="10"/>
<path d="M173.952 42.1547C173.952 49.6757 154.502 55.7518 130.506 55.7518C106.51 55.7518 87.0605 49.6387 87.0605 42.1547C87.0605 34.6337 106.51 28.5205 130.506 28.5205C154.502 28.5205 173.952 34.6337 173.952 42.1547Z" fill="#03000A" stroke="#F9FD09" stroke-width="0.5" stroke-miterlimit="10"/>
<path d="M173.952 42.1553V54.2334C173.952 61.7544 154.502 67.8305 130.506 67.8305C106.51 67.8305 87.0605 61.7174 87.0605 54.1963V42.1553C87.0605 49.6393 106.51 55.7524 130.506 55.7524C154.502 55.7524 173.952 49.6393 173.952 42.1553Z" fill="#03000A" stroke="#F9FD09" stroke-width="0.5" stroke-miterlimit="10"/>
<g clip-path="url(#clip1_164_2787)">
<path d="M135.194 50.7426L131.713 49.1764L135.264 47.5983L138.745 49.1646L135.194 50.7426Z" fill="#F4DF04" stroke="#F4DF04" stroke-width="0.3"/>
<path d="M142.942 44.653L145.9 45.9841L143.003 47.2717L136.098 44.1644L140.41 42.2483L140.42 42.2442C140.428 42.2405 140.44 42.2353 140.454 42.2288C140.481 42.2157 140.517 42.1968 140.554 42.1724C140.628 42.1235 140.71 42.0512 140.741 41.9571C140.803 41.7638 140.643 41.5079 139.933 41.2046L139.932 41.2042C139.247 40.916 138.737 40.69 138.397 40.5363C138.227 40.4594 138.1 40.4006 138.016 40.361C137.974 40.3413 137.942 40.3264 137.922 40.3164L137.898 40.3052L137.893 40.3025L137.891 40.3018L137.891 40.3017L137.891 40.3017L137.884 40.2985L137.877 40.2957L137.749 40.3602C137.877 40.2957 137.877 40.2957 137.877 40.2956L137.877 40.2955L137.876 40.2954L137.875 40.2949L137.872 40.2937L137.862 40.29C137.854 40.2871 137.843 40.2832 137.829 40.2785C137.801 40.2692 137.762 40.2569 137.712 40.2438C137.611 40.2176 137.466 40.1873 137.287 40.1709C136.916 40.1373 136.429 40.1663 135.92 40.3791L135.919 40.3797C135.453 40.5786 134.373 41.0583 133.412 41.4875C132.931 41.7023 132.479 41.9047 132.148 42.0534L131.752 42.231L131.742 42.2355L127.998 40.551L132.54 38.5882L132.541 38.5874L132.553 38.5825C132.561 38.5786 132.572 38.5732 132.585 38.5665C132.61 38.553 132.642 38.5338 132.672 38.5087C132.733 38.4579 132.788 38.3842 132.782 38.2875C132.768 38.0943 132.512 37.8292 131.681 37.4833L131.68 37.4833C130.872 37.1469 130.397 36.947 130.124 36.8312C129.988 36.7733 129.902 36.7365 129.851 36.7143L129.798 36.6911L129.794 36.6895C129.787 36.6856 129.779 36.6805 129.767 36.6744C129.744 36.6619 129.71 36.6452 129.667 36.6269C129.579 36.5906 129.448 36.5466 129.273 36.5188C128.906 36.4604 128.415 36.4844 127.844 36.7205L127.844 36.7204L127.839 36.7226C127.194 37.0092 122.857 38.9369 119.562 40.4094L119.426 40.4703L119.562 40.5317L133.343 46.7331L129.792 48.3112L112.175 40.3831L118.433 37.6017L118.57 37.5408L118.433 37.4792L115.493 36.1563L118.717 34.7235L121.657 36.0464L121.794 36.1079L121.931 36.047L125.669 34.3856L125.67 34.3853C125.675 34.3833 125.684 34.3802 125.696 34.3762C125.72 34.3681 125.756 34.3561 125.804 34.3412C125.9 34.3114 126.043 34.27 126.225 34.2249C126.592 34.1345 127.118 34.0296 127.756 33.9713C129.025 33.8556 130.757 33.9211 132.595 34.6715C132.86 34.7794 133.11 34.8813 133.348 34.978C134.81 35.5724 135.784 35.9688 136.479 36.3312C137.277 36.747 137.703 37.116 138.056 37.6899L138.066 37.6888C138.066 37.6945 138.067 37.7001 138.07 37.7056C138.107 37.7288 138.179 37.7489 138.199 37.7515C138.208 37.7524 138.223 37.7533 138.228 37.7535L138.239 37.7538L138.345 37.755C138.377 37.7563 138.417 37.7587 138.466 37.7629C138.624 37.7763 138.876 37.8081 139.222 37.8824C139.913 38.0311 140.98 38.3501 142.426 39.0321L145.344 40.4085L145.349 40.4108C145.354 40.4141 145.363 40.4191 145.375 40.426C145.398 40.4397 145.432 40.4606 145.474 40.4882C145.558 40.5434 145.672 40.6254 145.791 40.7311C146.029 40.9426 146.286 41.2476 146.36 41.6214C146.507 42.3633 145.938 43.3974 142.954 44.5258L142.794 44.5863L142.942 44.653Z" fill="#F4DF04" stroke="#F4DF04" stroke-width="0.3"/>
</g>
<path d="M130.635 86.1303C130.635 93.6513 111.185 99.7274 87.1896 99.7274C63.194 99.7274 43.7441 93.6143 43.7441 86.1303C43.7441 78.6092 63.194 72.4961 87.1896 72.4961C111.185 72.4961 130.635 78.6092 130.635 86.1303Z" fill="#03000A" stroke="#F9FD09" stroke-width="0.5" stroke-miterlimit="10"/>
<path d="M130.635 86.1309V98.209C130.635 105.73 111.185 111.806 87.1896 111.806C63.194 111.806 43.7441 105.693 43.7441 98.1719V86.1309C43.7441 93.6148 63.194 99.728 87.1896 99.728C111.185 99.728 130.635 93.6148 130.635 86.1309Z" fill="#03000A" stroke="#F9FD09" stroke-width="0.5" stroke-miterlimit="10"/>
<path d="M130.635 68.5678C130.635 76.0888 111.185 82.1649 87.1896 82.1649C63.194 82.1649 43.7441 76.0518 43.7441 68.5678C43.7441 61.0467 63.194 54.9336 87.1896 54.9336C111.185 54.9336 130.635 61.0467 130.635 68.5678Z" fill="#03000A" stroke="#F9FD09" stroke-width="0.5" stroke-miterlimit="10"/>
<path d="M130.635 68.5684V80.6465C130.635 88.1675 111.185 94.2436 87.1896 94.2436C63.194 94.2436 43.7441 88.1305 43.7441 80.6094V68.5684C43.7441 76.0523 63.194 82.1655 87.1896 82.1655C111.185 82.1655 130.635 76.0523 130.635 68.5684Z" fill="#03000A" stroke="#F9FD09" stroke-width="0.5" stroke-miterlimit="10"/>
<path d="M130.635 51.3256C130.635 58.8466 111.185 64.9227 87.1896 64.9227C63.194 64.9227 43.7441 58.8096 43.7441 51.3256C43.7441 43.8046 63.194 37.6914 87.1896 37.6914C111.185 37.6914 130.635 43.8046 130.635 51.3256Z" fill="#03000A" stroke="#F9FD09" stroke-width="0.5" stroke-miterlimit="10"/>
<path d="M130.635 51.3262V63.4043C130.635 70.9253 111.185 77.0014 87.1896 77.0014C63.194 77.0014 43.7441 70.8883 43.7441 63.3672V51.3262C43.7441 58.8102 63.194 64.9233 87.1896 64.9233C111.185 64.9233 130.635 58.8102 130.635 51.3262Z" fill="#03000A" stroke="#F9FD09" stroke-width="0.5" stroke-miterlimit="10"/>
<path d="M130.635 32.976C130.635 40.497 111.185 46.5731 87.1896 46.5731C63.194 46.5731 43.7441 40.46 43.7441 32.976C43.7441 25.455 63.194 19.3418 87.1896 19.3418C111.185 19.3418 130.635 25.455 130.635 32.976Z" fill="#03000A" stroke="#F9FD09" stroke-width="0.5" stroke-miterlimit="10"/>
<path d="M130.635 32.9766V45.0547C130.635 52.5757 111.185 58.6518 87.1896 58.6518C63.194 58.6518 43.7441 52.5387 43.7441 45.0176V32.9766C43.7441 40.4605 63.194 46.5737 87.1896 46.5737C111.185 46.5737 130.635 40.4605 130.635 32.9766Z" fill="#03000A" stroke="#F9FD09" stroke-width="0.5" stroke-miterlimit="10"/>
<path d="M130.635 14.6342C130.635 22.1552 111.185 28.2313 87.1896 28.2313C63.194 28.2313 43.7441 22.1182 43.7441 14.6342C43.7441 7.11315 63.194 1 87.1896 1C111.185 1 130.635 7.11315 130.635 14.6342Z" fill="#03000A" stroke="#F9FD09" stroke-width="0.5" stroke-miterlimit="10"/>
<path d="M130.635 14.6348V26.7129C130.635 34.2339 111.185 40.31 87.1896 40.31C63.194 40.31 43.7441 34.1969 43.7441 26.6758V14.6348C43.7441 22.1187 63.194 28.2319 87.1896 28.2319C111.185 28.2319 130.635 22.1187 130.635 14.6348Z" fill="#03000A" stroke="#F9FD09" stroke-width="0.5" stroke-miterlimit="10"/>
<g clip-path="url(#clip2_164_2787)">
<path d="M91.852 23.2251L88.3715 21.6588L91.9222 20.0808L95.4027 21.647L91.852 23.2251Z" fill="#F4DF04" stroke="#F4DF04" stroke-width="0.3"/>
<path d="M99.6006 17.1354L102.559 18.4665L99.6616 19.7541L92.7566 16.6468L97.0679 14.7307L97.0778 14.7266C97.0866 14.7229 97.0983 14.7177 97.112 14.7112C97.1393 14.6981 97.1749 14.6793 97.2121 14.6548C97.2864 14.6059 97.3682 14.5336 97.3988 14.4395C97.4617 14.2463 97.3015 13.9904 96.5907 13.687L96.5898 13.6866C95.9056 13.3984 95.3947 13.1724 95.0552 13.0187C94.8855 12.9418 94.7586 12.883 94.6743 12.8435C94.6321 12.8237 94.6007 12.8088 94.5798 12.7988L94.5565 12.7877L94.5508 12.7849L94.5494 12.7843L94.5491 12.7841L94.5491 12.7841L94.5426 12.7809L94.5355 12.7781L94.407 12.8427C94.5355 12.7781 94.5354 12.7781 94.5353 12.778L94.5351 12.778L94.5346 12.7778L94.5335 12.7773L94.5303 12.7761L94.5206 12.7725C94.5125 12.7695 94.5015 12.7656 94.4875 12.7609C94.4597 12.7516 94.42 12.7394 94.3698 12.7262C94.2697 12.7 94.1246 12.6697 93.9449 12.6534C93.5747 12.6197 93.0875 12.6487 92.5784 12.8615L92.577 12.8621C92.111 13.061 91.0315 13.5408 90.0705 13.9699C89.5895 14.1847 89.1376 14.3871 88.806 14.5358L88.41 14.7134L88.3999 14.7179L84.6565 13.0334L89.1978 11.0706L89.1996 11.0698L89.2109 11.0649C89.2196 11.061 89.2307 11.0556 89.2433 11.0489C89.2684 11.0355 89.2998 11.0163 89.3301 10.9911C89.3912 10.9404 89.4464 10.8666 89.4398 10.7699C89.4266 10.5767 89.1701 10.3116 88.3387 9.96575L88.3387 9.96573C87.5298 9.62937 87.0548 9.42941 86.7822 9.31364C86.6459 9.25576 86.5603 9.21897 86.509 9.19674L86.4558 9.17354L86.4521 9.17191C86.4456 9.16803 86.4367 9.1629 86.4255 9.15684C86.4022 9.14432 86.3686 9.12759 86.3247 9.10933C86.2377 9.07306 86.1061 9.02899 85.9317 9.00127C85.564 8.94283 85.0731 8.96684 84.5023 9.20288L84.5022 9.20284L84.4973 9.20502C83.8525 9.49161 79.5152 11.4193 76.2205 12.8918L76.0841 12.9527L76.2206 13.0141L90.0014 19.2155L86.4507 20.7936L68.8328 12.8655L75.0911 10.0841L75.2281 10.0232L75.0913 9.96162L72.1516 8.63874L75.3755 7.20591L78.3152 8.5288L78.452 8.59035L78.5891 8.52943L82.3272 6.86805L82.3281 6.86772C82.3337 6.86574 82.3425 6.86265 82.3544 6.8586C82.3783 6.85049 82.4146 6.83849 82.4625 6.8236C82.5584 6.79379 82.7008 6.75243 82.8837 6.70729C83.2499 6.61689 83.7758 6.51203 84.4145 6.45374C85.6829 6.33798 87.4152 6.40357 89.2537 7.15392C89.518 7.2618 89.7686 7.36373 90.0064 7.46042C91.4678 8.05484 92.4423 8.45123 93.1376 8.8136C93.9355 9.22946 94.3607 9.59842 94.7146 10.1723L94.7242 10.1712C94.7243 10.1769 94.7255 10.1825 94.7278 10.188C94.7655 10.2112 94.8372 10.2313 94.8572 10.2339C94.8663 10.2348 94.8807 10.2357 94.8859 10.236L94.8974 10.2362L95.0034 10.2374C95.0348 10.2388 95.075 10.2412 95.124 10.2453C95.2826 10.2588 95.5343 10.2905 95.8799 10.3648C96.5716 10.5136 97.6383 10.8326 99.0841 11.5145L102.002 12.8909L102.007 12.8933C102.012 12.8965 102.021 12.9016 102.033 12.9084C102.056 12.9222 102.09 12.943 102.132 12.9706C102.216 13.0258 102.33 13.1078 102.449 13.2135C102.687 13.425 102.944 13.73 103.018 14.1038C103.165 14.8457 102.597 15.8798 99.6123 17.0082L99.4524 17.0687L99.6006 17.1354Z" fill="#F4DF04" stroke="#F4DF04" stroke-width="0.3"/>
</g>
<defs>
<clipPath id="clip0_164_2787">
<rect width="18.6563" height="28.9172" fill="white" transform="matrix(0.913812 -0.406138 0.911922 0.410365 22.1191 38.998)"/>
</clipPath>
<clipPath id="clip1_164_2787">
<rect width="18.6563" height="28.9172" fill="white" transform="matrix(0.913812 -0.406138 0.911922 0.410365 108.824 38.998)"/>
</clipPath>
<clipPath id="clip2_164_2787">
<rect width="18.6563" height="28.9172" fill="white" transform="matrix(0.913812 -0.406138 0.911922 0.410365 65.4824 11.4805)"/>
</clipPath>
</defs>
</svg>
